<?xml version="1.0" standalone="no"?>
<!DOCTYPE svg PUBLIC "-//W3C//DTD SVG 1.1//EN" "http://www.w3.org/Graphics/SVG/1.1/DTD/svg11.dtd">
<svg xmlns="http://www.w3.org/2000/svg">
<metadata>Copyright (C) 2021 by original authors @ fontello.com</metadata>
<defs>
<font id="fleximple-icons" horiz-adv-x="1000" >
<font-face font-family="fleximple-icons" font-weight="400" font-stretch="normal" units-per-em="1000" ascent="850" descent="-150" />
<missing-glyph horiz-adv-x="1000" />
<glyph glyph-name="android" unicode="&#xe800;" d="M821 193c-25 0-46 21-46 47 0 25 21 47 46 47 26 0 47-22 47-47 0-26-21-47-47-47m-517 0c-26 0-47 21-47 47 0 25 21 47 47 47 25 0 47-22 47-47 0-26-22-47-47-47m534 282l94 162c2 3 3 7 3 11 0 11-9 20-19 20-8 0-15-5-18-11l-95-165c-153 69-328 69-481 0l-95 165c-3 6-10 11-18 11-10 0-19-9-19-20 0-4 1-8 3-11l94-162c-161-87-271-250-287-442h1125c-16 192-126 355-287 442" horiz-adv-x="1125" />

<glyph glyph-name="apple" unicode="&#xe801;" d="M622 325c0 72 32 126 98 166-37 52-92 81-166 87-69 5-145-41-173-41-29 0-96 39-149 39-109-2-225-87-225-260 0-51 10-104 29-159 25-71 115-247 209-244 49 1 84 35 148 35 62 0 94-35 149-35 95 1 177 161 201 233-128 60-121 175-121 179z m-110 321c53 63 48 121 46 141-47-2-101-32-132-68-34-38-54-86-50-140 51-4 97 22 136 67z" horiz-adv-x="750" />

<glyph glyph-name="envelope" unicode="&#xe802;" d="M94 725c-52 0-94-42-94-94v-562c0-52 42-94 94-94h812c52 0 94 42 94 94v562c0 52-42 94-94 94h-812z m40-120c11 0 22-3 31-10l335-227 335 227c20 15 52 14 69-10 17-24 6-51-8-63l-396-325-396 325c-14 12-25 39-8 63 10 14 24 20 38 20z" horiz-adv-x="1000" />

<glyph glyph-name="envelope-outline" unicode="&#xe803;" d="M94 725c-52 0-94-42-94-94v-562c0-52 42-94 94-94h812c52 0 94 42 94 94v562c0 52-42 94-94 94h-812z m18-94h776l-388-263-388 263z m-18-100l406-334 406 334v-462h-812v462z" horiz-adv-x="1000" />

<glyph glyph-name="facebook" unicode="&#xe804;" d="M984 350c0 268-216 484-484 484s-484-216-484-484c0-242 177-442 408-479v339h-123v140h123v107c0 121 73 188 183 188 53 0 109-9 109-9v-119h-61c-60 0-79-38-79-76v-91h134l-21-140h-113v-339c231 37 408 237 408 479z" horiz-adv-x="1000" />

<glyph glyph-name="facebook-f" unicode="&#xe805;" d="M545 288l28 181h-174v117c0 49 25 98 102 98h79v154s-71 12-140 12c-143 0-236-87-236-244v-137h-159v-181h159v-438h195v438z" horiz-adv-x="625" />

<glyph glyph-name="facebook-square" unicode="&#xe806;" d="M781 788h-687c-52 0-94-43-94-94v-688c0-51 42-94 94-94h268v298h-123v140h123v107c0 121 72 188 183 188 53 0 108-9 108-9v-119h-61c-60 0-79-38-79-76v-91h135l-22-140h-113v-298h268c52 0 94 43 94 94v688c0 51-42 94-94 94z" horiz-adv-x="875" />

<glyph glyph-name="instagram" unicode="&#xe807;" d="M872 530c-3 70-19 133-71 184-51 51-113 67-183 70-72 4-289 4-361 0-70-3-132-19-183-70-52-51-67-113-71-183-4-73-4-289 0-361 3-70 19-132 71-184 51-51 113-67 183-70 72-4 289-4 361 0 70 3 132 19 183 70 51 52 67 114 71 184 4 72 4 288 0 360z m-93-438c-16-38-45-68-83-83-58-23-195-18-258-18s-201-5-258 18c-38 15-68 45-83 83-23 58-18 194-18 258 0 64-5 201 18 258 15 38 44 68 83 83 57 23 194 18 258 18s200 5 258-18c38-15 67-45 83-83 23-58 17-194 17-258 0-64 6-200-17-258z m-341 482c-125 0-225-100-225-224s100-224 225-224c124 0 224 100 224 224s-100 224-224 224z m0-370c-81 0-146 66-146 146s65 146 146 146 145-66 145-146-65-146-145-146z m285 380c0-30-23-53-52-53-29 0-52 24-52 53 0 28 23 52 52 52 29 0 52-24 52-52z" horiz-adv-x="875" />

<glyph glyph-name="instagram-square" unicode="&#xe808;" d="M781 788h-687c-52 0-94-43-94-94v-688c0-51 42-94 94-94h687c52 0 94 43 94 94v688c0 51-42 94-94 94z m-33-567c-3-50-14-94-51-131-36-36-80-48-130-50-52-3-207-3-258 0-50 2-95 14-131 50-37 37-48 81-51 131-3 52-3 206 0 258 3 50 14 94 51 131 37 36 81 48 131 50 51 3 206 3 258 0 50-2 94-14 130-50 37-37 48-81 51-131 3-52 3-206 0-258z m-67 313a106 106 0 0 1-59 60c-41 16-139 12-184 12-46 0-144 4-185-12a106 106 0 0 1-59-60c-16-41-13-138-13-184s-3-143 13-184a106 106 0 0 1 59-60c41-16 139-12 185-12 45 0 143-4 184 12a106 106 0 0 1 59 60c16 41 13 139 13 184s3 143-13 184z m-243-344c-88 0-161 72-161 160s73 160 161 160 160-72 160-160v0c0-88-73-160-160-160h0z m0 264c-58 0-105-47-105-104 0-57 47-104 105-104 57 0 104 47 104 104 0 57-47 104-104 104z m166 26h0c-20 0-37 16-37 37s17 37 37 37 38-17 38-37v0c0-21-17-38-38-38z" horiz-adv-x="875" />

<glyph glyph-name="linkedin" unicode="&#xe809;" d="M196-88h-181v585h181z m-91 664c-58 0-105 48-105 106 0 58 47 106 105 106s105-48 105-106c0-58-47-106-105-106z m770-664h-181v285c0 68-2 155-94 155-95 0-109-74-109-150v-290h-181v585h174v-80h2c24 46 83 94 172 94 183 0 217-121 217-278z" horiz-adv-x="875" />

<glyph glyph-name="linkedin-square" unicode="&#xe80a;" d="M813 788h-751c-34 0-62-29-62-64v-748c0-35 28-64 62-64h751c34 0 62 29 62 64v748c0 35-28 64-62 64z m-548-750h-130v417h130z m-65 474c-42 0-76 34-76 75s34 76 76 76c41 0 75-34 75-76 0-41-34-75-75-75z m551-474h-130v203c0 48-1 110-67 110-68 0-78-52-78-107v-206h-130v417h124v-57h2c18 33 60 67 123 67 131 0 156-86 156-199z" horiz-adv-x="875" />

<glyph glyph-name="magnifying-glass" unicode="&#xe80b;" d="M428 850c-236 0-428-192-428-428s192-428 428-428c88 0 170 27 238 73l203-203a47 47 0 0 1 33-14 47 47 0 0 1 34 14c15 15 35 35 50 50a47 47 0 0 1 14 34 47 47 0 0 1-14 33l-203 203c46 68 73 150 73 238 0 236-192 428-428 428z m0-154c151 0 273-123 273-274s-122-273-273-273c-151 0-274 122-274 273s123 274 274 274z" horiz-adv-x="1000" />

<glyph glyph-name="microphone" unicode="&#xe80c;" d="M344 163c103 0 187 83 187 187v313c0 103-84 187-187 187s-188-84-188-187v-313c0-104 84-187 188-187z m312 312h-31c-17 0-31-14-31-31v-94c0-146-126-263-275-249-130 13-225 130-225 260v83c0 17-14 31-31 31h-32c-17 0-31-14-31-31v-79c0-175 125-331 297-355v-66h-109c-18 0-32-14-32-32v-31c0-17 14-31 32-31h312c17 0 31 14 31 31v31c0 18-14 32-31 32h-109v66c167 23 297 166 297 340v94c0 17-14 31-32 31z" horiz-adv-x="688" />

<glyph glyph-name="play" unicode="&#xe80d;" d="M153 835a101 101 0 0 1-102 2 101 101 0 0 1-51-88v-798a101 101 0 0 1 51-88 101 101 0 0 1 102 2l681 413a84 84 0 0 1 41 72 84 84 0 0 1-41 72c-172 105-491 298-681 413z" horiz-adv-x="875" />

<glyph glyph-name="signal-stream" unicode="&#xe80e;" d="M142 724a31 31 0 0 0 23 10 31 31 0 0 0 23-9c13-14 31-31 44-44 12-12 12-31 1-43-67-77-108-178-108-288 0-110 41-211 108-288 11-12 11-31-1-42-13-14-31-31-44-45a31 31 0 0 0-23-9 31 31 0 0 0-23 10c-88 100-142 231-142 374 0 143 54 274 142 374z m796 1a31 31 0 0 0 45-1c88-100 142-231 142-374 0-143-54-274-142-374a31 31 0 0 0-45-1 18025 18025 0 0 0-45 44c-12 12-12 31-1 43 67 77 108 178 108 288 0 110-41 211-108 288-11 12-10 31 1 43 14 13 31 30 45 44z m-640-159a31 31 0 0 0 46 2c14-13 31-31 45-44 11-11 12-29 2-41-28-37-45-83-45-133s17-96 45-133c10-12 9-30-2-41-14-13-31-31-45-44a31 31 0 0 0-46 2c-48 59-77 134-77 216s29 157 77 216z m483 3a31 31 0 0 0 24 9c8-1 17-5 22-12 48-59 77-134 77-216s-29-157-77-216a31 31 0 0 0-22-11 31 31 0 0 0-24 9c-14 13-31 31-45 44-11 11-12 29-2 41 28 37 45 83 45 133s-17 96-45 133c-10 12-9 30 3 41 13 13 30 31 44 45z m-218-110c60 0 109-49 109-109s-49-109-109-109-110 49-110 109 49 109 110 109z" horiz-adv-x="1125" />

<glyph glyph-name="twitter" unicode="&#xe80f;" d="M897 554c1-9 1-18 1-27 0-271-206-583-583-583-116 0-224 33-315 92 17-2 32-3 50-3 95 0 184 33 254 88-90 2-166 61-192 142 13-2 26-3 39-3 18 0 37 2 54 7-94 19-164 101-164 201v3c27-16 59-25 92-26-55 36-91 99-91 170 0 38 10 73 28 104 101-125 252-206 422-215-3 15-5 31-5 47 0 113 92 205 205 205 59 0 113-25 150-65 46 9 91 26 130 50-15-48-47-88-90-113 41 4 81 16 118 32-28-41-63-77-103-106z" horiz-adv-x="1000" />

<glyph glyph-name="twitter-square" unicode="&#xe810;" d="M781 788h-687c-52 0-94-42-94-94v-688c0-52 42-94 94-94h687c52 0 94 42 94 94v688c0 52-42 94-94 94z m-95-311c0-5 0-11 0-16 0-170-129-365-364-365-73 0-140 21-197 58 10-1 20-2 31-2 60 0 115 21 159 55-56 1-104 38-120 89 20-3 38-3 58 2-59 12-103 64-103 126v1c17-9 37-15 58-16-35 24-57 64-57 107 0 24 6 46 18 65 63-78 157-129 264-134-19 86 47 157 125 157 37 0 70-15 93-40 29 5 57 16 81 30-9-29-29-54-56-70 26 3 51 10 74 20-17-26-39-48-64-67z" horiz-adv-x="875" />

<glyph glyph-name="volume" unicode="&#xe811;" d="M420 711l-174-173h-199c-26 0-47-21-47-47v-282c0-25 21-46 47-46h199l174-174c29-30 80-9 80 33v656c0 42-51 63-80 33z m518-361c0 124-63 238-168 305-22 14-51 8-65-14-14-22-7-52 15-66 77-49 124-133 124-225s-47-176-124-225c-22-14-29-43-15-66 13-20 42-29 65-14 105 67 168 181 168 305z m-277 150c-23 13-51 4-64-18-13-23-4-51 18-64 26-14 41-40 41-68 0-28-15-54-41-68-22-12-30-41-18-64 13-22 41-30 64-18 55 30 89 88 89 150 0 62-34 120-89 150z" horiz-adv-x="938" />

<glyph glyph-name="volume-down" unicode="&#xe812;" d="M420 711l-174-173h-199c-26 0-47-21-47-47v-282c0-25 21-46 47-46h199l174-174c29-30 80-9 80 33v656c0 42-51 63-80 33z m241-211c-23 13-52 4-64-18-13-23-4-51 18-64 26-14 41-40 41-68 0-28-15-54-41-68-22-12-31-41-18-64 13-22 41-30 64-18 55 30 89 88 89 150 0 62-34 120-89 150z" horiz-adv-x="750" />

<glyph glyph-name="volume-mute" unicode="&#xe813;" d="M420 711l-174-173h-199c-26 0-47-21-47-47v-282c0-25 21-46 47-46h199l174-174c29-30 80-9 80 33v656c0 42-51 63-80 33z m482-361l89 89c12 12 12 32 0 45l-45 44c-12 13-32 13-44 0l-89-89-90 89c-12 13-32 13-44 0l-45-44c-12-13-12-33 0-45l89-89-89-89c-12-12-12-32 0-45l45-44c12-13 32-13 44 0l90 89 89-89c12-13 32-13 44 0l45 44c12 13 12 33 0 45z" horiz-adv-x="1000" />

<glyph glyph-name="volume-off" unicode="&#xe814;" d="M420 711l-174-173h-199c-26 0-47-22-47-47v-282c0-25 21-46 47-46h199l174-174c29-30 80-9 80 33v656c0 42-51 63-80 33z" horiz-adv-x="500" />

<glyph glyph-name="volume-up" unicode="&#xe815;" d="M420 711l-174-173h-199c-26 0-47-21-47-47v-282c0-25 21-46 47-46h199l174-174c29-30 80-9 80 33v656c0 42-51 63-80 33z m456 100c-22 14-51 8-66-14-14-21-8-51 14-65 129-85 207-228 207-382 0-154-78-297-207-382-22-14-28-44-14-65 14-21 43-29 66-14 156 102 249 275 249 461 0 186-93 359-249 461z m62-461c0 124-63 238-168 305-22 14-51 8-65-14-14-22-7-52 15-66 77-49 124-133 124-225s-47-176-124-225c-22-14-29-43-15-66 13-20 42-29 65-14 105 67 168 181 168 305z m-277 150c-23 13-51 4-64-18-13-23-4-51 18-64 26-14 41-40 41-68 0-28-15-54-41-68-22-12-30-41-18-64 13-22 41-30 64-18 55 30 89 88 89 150 0 62-34 120-89 150z" horiz-adv-x="1125" />

<glyph glyph-name="whatsapp" unicode="&#xe816;" d="M744 660c-82 82-191 128-307 128-239 0-433-195-433-434 0-76 20-151 58-217l-62-225 230 61c63-35 135-53 207-53h0c239 0 438 195 438 434 0 116-49 224-131 306z m-307-667c-64 0-128 18-183 50l-13 8-137-36 37 133-9 14c-36 58-55 124-55 192 0 199 162 360 361 360 96 0 186-37 254-105 68-69 110-159 110-255 0-199-166-361-365-361z m198 270c-11 6-64 32-74 35-10 4-17 6-24-5-8-11-28-35-35-43-6-7-12-8-23-2-64 31-106 56-148 128-11 20 11 18 32 60 4 7 2 13-1 19-3 5-24 58-33 80-9 21-18 18-25 19-6 0-13 0-20 0-8 0-19-3-29-14-10-10-38-37-38-90 0-53 39-105 44-112 5-7 76-117 185-164 69-29 96-32 130-27 21 3 64 26 73 52 9 25 9 47 7 51-3 5-10 8-21 13z" horiz-adv-x="875" />

<glyph glyph-name="whatsapp-square" unicode="&#xe817;" d="M438 610c-142 0-258-115-258-257 0-49 14-96 39-137l6-10-26-95 98 26 9-6c40-23 85-36 131-36h1c141 0 260 116 260 258 0 68-30 133-78 182-49 48-114 75-182 75z m151-368c-7-18-37-34-52-36-25-4-44-2-93 19-78 33-128 112-132 117-4 5-32 42-32 80s20 57 27 64c7 8 16 10 21 10 5 0 10 0 15 0 5 0 11 2 17-13 7-16 22-54 24-58s3-8 1-13c-15-30-31-29-23-42 30-52 60-70 105-92 8-4 13-4 17 2 5 5 19 22 24 30 6 8 11 6 18 4 7-3 45-22 53-25s13-6 15-9c1-4 1-20-5-38z m192 546h-687c-52 0-94-42-94-94v-688c0-52 42-94 94-94h687c52 0 94 42 94 94v688c0 52-42 94-94 94z m-344-745c-52 0-103 13-148 38l-164-43 44 160c-27 47-41 100-41 155 0 171 139 310 309 310 83 0 161-33 219-91 59-59 94-137 94-219 0-171-142-310-313-310z" horiz-adv-x="875" />

<glyph glyph-name="windows" unicode="&#xe818;" d="M0 667l359 49v-346h-359z m0-634l359-49v342h-359z m398-55l477-66v414h-477z m0 744v-352h477v418z" horiz-adv-x="875" />

<glyph glyph-name="youtube" unicode="&#xe819;" d="M1074 608c-13 46-49 82-95 95-83 22-416 22-416 22s-334 0-417-22c-46-13-82-49-94-95-23-84-23-259-23-259s0-174 23-258c12-46 48-81 94-94 83-22 417-22 417-22s333 0 416 22c46 13 82 48 95 94 22 84 22 258 22 258s0 175-22 259z m-621-417v317l279-159z" horiz-adv-x="1125" />

<glyph glyph-name="youtube-square" unicode="&#xe81a;" d="M875 694v-688c0-52-42-94-94-94h-687c-52 0-94 42-94 94v688c0 52 42 94 94 94h687c52 0 94-42 94-94z m-82-345s0 117-15 173c-8 31-32 55-63 63-55 15-277 15-277 15s-223 0-278-15c-31-8-55-32-63-63-15-56-15-173-15-173s0-116 15-172c8-31 32-54 63-62 55-15 278-15 278-15s222 0 277 15c31 8 55 32 63 62 15 56 15 172 15 172z m-428 106l186-105-186-106z" horiz-adv-x="875" />
</font>
</defs>
</svg>
